<svg width="400" height="400" viewBox="0 0 400 400" fill="none" xmlns="http://www.w3.org/2000/svg">
    <g clip-path="url(#clip0_104_659)">
        <path fill-rule="evenodd" clip-rule="evenodd"
            d="M300.353 98.9311C299.557 99.2271 298.268 99.8631 297.489 100.345C295.05 101.852 235.234 164.177 208.365 193.206C179.49 224.403 179.684 224.269 170.989 218.955C143.861 202.377 105.427 179.308 103 178.147C93.695 173.697 88.341 176.239 76.139 190.899C72.191 195.642 71.004 198.132 71.037 201.6C71.088 207.07 71.235 207.232 100.062 233.824C110.038 243.026 120.27 252.467 122.8 254.803C125.33 257.139 131.63 262.896 136.8 267.595C141.97 272.295 151.567 281.103 158.126 287.17C174.979 302.756 177.316 304.006 183.606 300.797C186.814 299.16 203.763 279.519 236.242 239.8C240.2 234.96 251.768 221.1 261.949 209C283.124 183.834 294.121 170.757 308.199 154C313.651 147.51 320.292 139.636 322.956 136.503C333.204 124.449 333.41 120.46 324.236 111.707C312.437 100.447 305.809 96.9021 300.353 98.9311Z"
            fill="#FBFBFB" />
        <path fill-rule="evenodd" clip-rule="evenodd"
            d="M45 2.142C25.603 11.554 10.312 26.794 2.12 44.88V44.88C0.722774 47.9638 0 51.3103 0 54.6959V200.658V345.49C0 349.613 0.947377 353.68 2.769 357.379V357.379C11.29 374.676 23.833 387.595 41.401 397.17V397.17C44.8086 399.027 48.6273 400 52.5081 400H200.4H348.506C352.246 400 355.927 399.062 359.211 397.272V397.272C376.862 387.652 390.518 373.608 398.582 356.782V356.782C399.515 354.834 400 352.702 400 350.542V200.482V51.6623C400 48.6893 399.305 45.7575 397.97 43.101V43.101C389.258 25.766 375.073 11.773 357.089 2.772V2.772C353.446 0.949096 349.429 5.61499e-05 345.356 0.000163996L200.475 0.004L54.2906 0.00690288C51.0721 0.0069668 47.8956 0.736976 45 2.142V2.142ZM309.206 99.849C314.704 102.425 327.722 114.103 329.663 118.2C332.209 123.575 330.892 127.168 322.956 136.503C320.292 139.636 313.651 147.51 308.199 154C294.121 170.757 283.124 183.834 261.949 209C251.768 221.1 240.2 234.96 236.242 239.8C203.763 279.519 186.814 299.16 183.606 300.797C177.316 304.006 174.979 302.756 158.126 287.17C151.567 281.103 141.97 272.295 136.8 267.595C131.63 262.896 125.33 257.139 122.8 254.803C120.27 252.467 110.038 243.026 100.062 233.824C71.235 207.232 71.088 207.07 71.037 201.6C71.004 198.132 72.191 195.642 76.139 190.899C88.341 176.239 93.695 173.697 103 178.147C105.427 179.308 143.861 202.377 170.989 218.955C179.684 224.269 179.49 224.403 208.365 193.206C235.234 164.177 295.05 101.852 297.489 100.345C301.264 98.012 304.952 97.856 309.206 99.849Z"
            fill="#FF5722" />
    </g>
    <defs>
        <clipPath id="clip0_104_659">
            <rect width="400" height="400" rx="88" fill="bgColor" />
        </clipPath>
    </defs>
</svg>